<svg xmlns="http://www.w3.org/2000/svg" viewBox="0 0 143.48 12.73"><defs><style>.cls-1{fill:#333;}</style></defs><g id="Camada_2" data-name="Camada 2"><g id="Layer_1" data-name="Layer 1"><polygon class="cls-1" points="0 12.57 1.72 12.57 6.87 2.94 12.06 12.57 13.83 12.57 6.93 0 0 12.57"/><rect class="cls-1" x="20.02" y="11.04" width="12.83" height="1.53"/><polygon class="cls-1" points="40.9 12.57 42.41 12.57 42.41 1.66 51.94 1.66 51.94 6.02 45.3 6.02 45.3 6.06 53.45 12.73 53.45 10.83 49.21 7.44 53.45 7.44 53.45 0.17 40.9 0.17 40.9 12.57"/><rect class="cls-1" x="20.1" y="0.17" width="12.68" height="1.53"/><rect class="cls-1" x="4.85" y="11.04" width="4.08" height="1.53"/><rect class="cls-1" x="22.89" y="5.59" width="7.08" height="1.53"/><path class="cls-1" d="M67.7.07A6.3,6.3,0,1,0,74,6.36,6.27,6.27,0,0,0,67.7.07Zm0,11.08A4.67,4.67,0,0,1,63,6.36a4.73,4.73,0,1,1,9.45,0A4.67,4.67,0,0,1,67.7,11.15Z"/><rect class="cls-1" x="134.51" y="5.59" width="5.35" height="1.53"/><rect class="cls-1" x="112.01" y="0.17" width="13.22" height="1.53"/><path class="cls-1" d="M103,2.69V.17h-1.51V2.68a3.74,3.74,0,0,0,0,7.35v2.54H103V10a3.74,3.74,0,0,0,0-7.34ZM99.86,6.36a2.37,2.37,0,0,1,1.67-2.29V8.65A2.41,2.41,0,0,1,99.86,6.36ZM103,8.64V4.07a2.4,2.4,0,0,1,0,4.57Z"/><rect class="cls-1" x="117.85" y="3.47" width="1.55" height="9.1"/><polygon class="cls-1" points="83.47 0.17 81.92 0.17 81.92 12.57 93.78 12.57 93.78 11.04 83.47 11.04 83.47 0.17"/><path class="cls-1" d="M137.2.07a6.3,6.3,0,1,0,6.28,6.29A6.27,6.27,0,0,0,137.2.07Zm0,11.08a4.67,4.67,0,0,1-4.74-4.79,4.73,4.73,0,1,1,9.46,0A4.67,4.67,0,0,1,137.2,11.15Z"/></g></g></svg>