<svg xmlns="http://www.w3.org/2000/svg" viewBox="0 0 20.29 20.94"><defs><style>.cls-1{fill:#333;}</style></defs><g id="Camada_2" data-name="Camada 2"><g id="Layer_1" data-name="Layer 1"><path class="cls-1" d="M3.93,0A1,1,0,0,1,4.5.81c.16,1,.34,2,.51,3,0,.31,0,.31.36.31h14a.81.81,0,0,1,.81,1.2Q19,8.15,17.89,11c-.06.14-.11.27-.16.4a.85.85,0,0,1-.89.61H6.68c-.29,0-.29,0-.24.28s.11.64.16,1c0,.13.08.18.2.17H19.39a.82.82,0,0,1,.79.4A.76.76,0,0,1,19.7,15a1.72,1.72,0,0,1-.39,0H6.17c-.63,0-.89-.2-1-.83q-.51-3-1-5.94c-.34-2-.67-3.93-1-5.9,0-.2-.07-.4-.09-.6s-.09-.21-.24-.2h-2A.78.78,0,0,1,0,.93.79.79,0,0,1,.49,0L.54,0Z"/><path class="cls-1" d="M15.3,20.94a2.49,2.49,0,1,1,2.49-2.49A2.5,2.5,0,0,1,15.3,20.94Z"/><path class="cls-1" d="M5.58,18.46A2.5,2.5,0,1,1,8.1,20.94,2.47,2.47,0,0,1,5.58,18.46Z"/></g></g></svg>