<svg xmlns="http://www.w3.org/2000/svg" viewBox="0 0 17.66 21.11"><defs><style>.cls-1{fill:#333;}</style></defs><g id="Camada_2" data-name="Camada 2"><g id="Layer_1" data-name="Layer 1"><path class="cls-1" d="M3.16,21.11a4,4,0,0,1-1.38-.44,3.23,3.23,0,0,1-1.72-2.5,10.61,10.61,0,0,1,.1-2.87,8.91,8.91,0,0,1,.57-2.23,4.56,4.56,0,0,1,1.92-2.38,3.93,3.93,0,0,1,2-.51.92.92,0,0,1,.49.13c.37.19.7.43,1,.65a4.88,4.88,0,0,0,2.87.82A4.89,4.89,0,0,0,11.41,11c.3-.18.61-.37.9-.58a1.8,1.8,0,0,1,1.43-.19,3.91,3.91,0,0,1,2.86,2.11,9.31,9.31,0,0,1,1,3.34,13.52,13.52,0,0,1,.08,2,3.42,3.42,0,0,1-3,3.39l-.12,0Z"/><path class="cls-1" d="M9.31,0a6.43,6.43,0,0,1,1.15.28,5,5,0,0,1,3.31,4.24A5.09,5.09,0,0,1,5.05,8.65a5,5,0,0,1-.69-6.24A4.93,4.93,0,0,1,7.93,0a.7.7,0,0,0,.14,0Z"/></g></g></svg>